<svg xmlns="http://www.w3.org/2000/svg" xmlns:xlink="http://www.w3.org/1999/xlink" width="193" zoomAndPan="magnify" viewBox="0 0 144.75 144.749998" height="193" preserveAspectRatio="xMidYMid meet" version="1.2"><defs><clipPath id="1a83285c69"><path d="M 0 0 L 144.5 0 L 144.5 144.5 L 0 144.5 Z M 0 0 "/></clipPath></defs><g id="aa5900bb12"><g clip-rule="nonzero" clip-path="url(#1a83285c69)"><path style=" stroke:none;fill-rule:nonzero;fill:#007bb7;fill-opacity:1;" d="M 126.339844 0.28125 L 18.121094 0.28125 C 8.175781 0.28125 0 8.445312 0 18.347656 L 0 126.066406 C 0 135.96875 8.175781 144.21875 18.121094 144.21875 L 71.96875 144.21875 L 71.96875 94.546875 L 54.1875 94.546875 L 54.1875 72.53125 L 71.96875 72.53125 L 71.96875 54.253906 C 71.96875 39.378906 84.34375 27.660156 99.285156 27.660156 L 117.6875 27.660156 L 117.6875 49.953125 L 108.300781 49.953125 C 103.324219 49.953125 99.34375 49.296875 99.34375 54.253906 L 99.34375 72.53125 L 121.832031 72.53125 L 112.8125 94.546875 L 99.34375 94.546875 L 99.34375 144.21875 L 126.339844 144.21875 C 136.285156 144.21875 144.5 135.96875 144.5 126.066406 L 144.5 18.347656 C 144.5 8.445312 136.285156 0.28125 126.339844 0.28125 Z M 126.339844 0.28125 "/></g></g></svg>