<svg xmlns="http://www.w3.org/2000/svg" xmlns:xlink="http://www.w3.org/1999/xlink" width="202" zoomAndPan="magnify" viewBox="0 0 151.5 151.499993" height="202" preserveAspectRatio="xMidYMid meet" version="1.2"><g id="01faad8783"><path style=" stroke:none;fill-rule:nonzero;fill:#27a8e0;fill-opacity:1;" d="M 75.449219 0.136719 C 33.523438 0.277344 0.0117188 34.367188 0.558594 76.292969 C 0.609375 80.511719 1.015625 84.699219 1.773438 88.847656 C 2.53125 93 3.632812 97.058594 5.074219 101.023438 C 6.519531 104.992188 8.289062 108.804688 10.378906 112.472656 C 12.46875 116.140625 14.851562 119.605469 17.527344 122.867188 C 17.949219 123.382812 18.289062 123.953125 18.539062 124.570312 C 18.789062 125.1875 18.945312 125.832031 19.003906 126.496094 C 19.0625 127.160156 19.019531 127.820312 18.878906 128.472656 C 18.738281 129.125 18.507812 129.742188 18.179688 130.324219 L 11.707031 141.925781 C 9.914062 145.140625 12.835938 148.945312 16.40625 148.035156 L 38.332031 142.453125 C 39.910156 142.050781 41.433594 142.207031 42.898438 142.921875 C 47.746094 145.277344 52.792969 147.085938 58.03125 148.351562 C 63.269531 149.617188 68.585938 150.308594 73.976562 150.421875 C 116.128906 151.375 150.726562 117.695312 150.859375 75.53125 C 150.988281 33.828125 117.152344 -0.00390625 75.449219 0.136719 Z M 75.707031 141.183594 C 74.628906 141.183594 73.550781 141.15625 72.472656 141.101562 C 71.394531 141.050781 70.320312 140.972656 69.25 140.863281 C 68.175781 140.757812 67.105469 140.628906 66.039062 140.46875 C 64.972656 140.3125 63.910156 140.125 62.851562 139.917969 C 61.792969 139.707031 60.742188 139.46875 59.695312 139.207031 C 58.648438 138.945312 57.609375 138.660156 56.578125 138.34375 C 55.546875 138.03125 54.523438 137.695312 53.507812 137.332031 C 52.492188 136.96875 51.488281 136.578125 50.492188 136.167969 C 49.496094 135.753906 48.507812 135.316406 47.535156 134.855469 C 46.558594 134.394531 45.597656 133.910156 44.644531 133.402344 C 43.695312 132.894531 42.757812 132.363281 41.832031 131.808594 C 40.90625 131.253906 39.996094 130.675781 39.097656 130.078125 C 38.203125 129.480469 37.320312 128.859375 36.453125 128.214844 C 35.589844 127.574219 34.738281 126.910156 33.90625 126.226562 C 33.070312 125.542969 32.253906 124.835938 31.457031 124.113281 C 30.65625 123.390625 29.875 122.644531 29.113281 121.882812 C 28.351562 121.121094 27.609375 120.339844 26.882812 119.542969 C 26.160156 118.742188 25.457031 117.925781 24.769531 117.09375 C 24.085938 116.257812 23.425781 115.410156 22.78125 114.542969 C 22.140625 113.675781 21.519531 112.792969 20.917969 111.898438 C 20.320312 111 19.742188 110.089844 19.1875 109.164062 C 18.632812 108.242188 18.101562 107.304688 17.59375 106.351562 C 17.085938 105.402344 16.601562 104.4375 16.140625 103.464844 C 15.679688 102.488281 15.242188 101.503906 14.832031 100.507812 C 14.417969 99.511719 14.03125 98.503906 13.667969 97.488281 C 13.304688 96.472656 12.964844 95.449219 12.652344 94.417969 C 12.339844 93.386719 12.050781 92.347656 11.789062 91.300781 C 11.527344 90.253906 11.289062 89.203125 11.082031 88.144531 C 10.871094 87.085938 10.6875 86.023438 10.527344 84.957031 C 10.371094 83.890625 10.238281 82.820312 10.132812 81.75 C 10.027344 80.675781 9.945312 79.601562 9.894531 78.523438 C 9.839844 77.445312 9.8125 76.367188 9.8125 75.289062 C 9.8125 38.898438 39.316406 9.398438 75.707031 9.398438 C 111.957031 9.398438 141.371094 38.671875 141.597656 74.867188 C 141.828125 111.183594 112.027344 141.183594 75.707031 141.183594 Z M 75.707031 141.183594 "/><path style=" stroke:none;fill-rule:nonzero;fill:#27a8e0;fill-opacity:1;" d="M 63.929688 43.253906 L 63.960938 43.316406 L 67.890625 51.109375 C 68.316406 51.953125 68.597656 52.84375 68.734375 53.777344 C 68.871094 54.714844 68.855469 55.648438 68.6875 56.578125 C 68.523438 57.507812 68.210938 58.386719 67.761719 59.21875 C 67.308594 60.046875 66.734375 60.785156 66.042969 61.425781 C 65.355469 62.066406 64.785156 62.796875 64.332031 63.621094 C 63.882812 64.445312 63.570312 65.320312 63.402344 66.242188 C 63.230469 67.167969 63.210938 68.09375 63.34375 69.023438 C 63.472656 69.957031 63.746094 70.839844 64.164062 71.683594 C 66.523438 76.421875 70.613281 82.949219 76.847656 87.660156 C 77.546875 88.191406 78.308594 88.609375 79.132812 88.910156 C 79.957031 89.210938 80.808594 89.386719 81.6875 89.433594 C 82.5625 89.476562 83.425781 89.394531 84.277344 89.179688 C 85.128906 88.964844 85.929688 88.628906 86.679688 88.175781 L 89.210938 86.636719 C 90.363281 85.9375 91.605469 85.523438 92.949219 85.402344 C 94.289062 85.277344 95.589844 85.453125 96.847656 85.933594 L 106.90625 89.757812 C 107.441406 89.960938 107.953125 90.214844 108.4375 90.519531 C 108.925781 90.824219 109.375 91.171875 109.792969 91.566406 C 110.210938 91.957031 110.585938 92.386719 110.917969 92.855469 C 111.25 93.320312 111.53125 93.816406 111.765625 94.339844 C 112 94.863281 112.183594 95.402344 112.3125 95.960938 C 112.441406 96.519531 112.511719 97.085938 112.527344 97.660156 C 112.546875 98.230469 112.507812 98.800781 112.410156 99.367188 C 112.316406 99.929688 112.167969 100.480469 111.964844 101.015625 C 111.84375 101.324219 111.710938 101.625 111.5625 101.917969 L 108.773438 107.320312 C 108.546875 107.757812 108.285156 108.171875 107.992188 108.5625 C 107.695312 108.957031 107.367188 109.324219 107.011719 109.660156 C 106.652344 110 106.269531 110.304688 105.859375 110.578125 C 105.453125 110.847656 105.023438 111.085938 104.574219 111.285156 C 104.125 111.488281 103.660156 111.648438 103.183594 111.769531 C 102.710938 111.894531 102.226562 111.972656 101.734375 112.015625 C 101.246094 112.054688 100.753906 112.054688 100.265625 112.011719 C 99.777344 111.972656 99.292969 111.886719 98.816406 111.765625 C 83.015625 107.675781 45.363281 93.46875 42.328125 50.5 C 42.265625 49.648438 42.332031 48.804688 42.519531 47.972656 C 42.707031 47.136719 43.007812 46.347656 43.429688 45.601562 C 43.847656 44.859375 44.363281 44.1875 44.980469 43.59375 C 45.597656 43.003906 46.285156 42.511719 47.042969 42.121094 L 52.175781 39.484375 C 52.683594 39.222656 53.214844 39.011719 53.765625 38.855469 C 54.316406 38.695312 54.878906 38.59375 55.449219 38.546875 C 56.019531 38.5 56.589844 38.507812 57.160156 38.574219 C 57.730469 38.640625 58.289062 38.761719 58.832031 38.933594 C 59.378906 39.109375 59.902344 39.335938 60.402344 39.613281 C 60.90625 39.894531 61.375 40.21875 61.8125 40.589844 C 62.25 40.960938 62.644531 41.367188 63.003906 41.816406 C 63.359375 42.265625 63.667969 42.746094 63.929688 43.253906 Z M 63.929688 43.253906 "/></g></svg>